<svg xmlns="http://www.w3.org/2000/svg" xmlns:xlink="http://www.w3.org/1999/xlink" width="500" zoomAndPan="magnify" viewBox="0 0 375 374.999991" height="500" preserveAspectRatio="xMidYMid meet" version="1.0"><path fill="#62e1e9" d="M 348.066406 97.671875 C 356.359375 114.445312 356.6875 115.105469 360.289062 125.363281 C 365.796875 143.578125 366.011719 144.292969 367.859375 155.046875 C 368.695312 161.621094 369.777344 170.40625 370.222656 177.019531 C 369.882812 205.710938 361.5625 240.640625 302.347656 282.199219 C 276.789062 300.128906 226.078125 326.789062 129.628906 351.914062 C 116.320312 355.378906 116.230469 355.4375 113.925781 356.882812 C 114.027344 356.980469 114.164062 357.101562 114.261719 357.195312 C 102.136719 351.757812 101.148438 351.308594 93.746094 347.152344 C 84.355469 341.820312 75.632812 335.402344 67.699219 328.027344 C 70.550781 325.546875 75.042969 323.867188 95.980469 317.480469 C 356.335938 238.007812 376.449219 153.5 347.472656 96.589844 L 348.066406 97.671875 " fill-opacity="1" fill-rule="nonzero"/><path fill="#62e1e9" d="M 123.03125 11.429688 C 132.542969 8.273438 142.375 5.011719 160.429688 2.351562 L 165.113281 1.78125 C 164.574219 1.890625 163.789062 2.074219 163.417969 2.480469 C 164.0625 3.121094 165.777344 4.8125 185.472656 8.03125 C 169.3125 7.628906 165.476562 7.53125 147.410156 10.167969 C 124.335938 10.9375 124.335938 10.9375 123.03125 11.429688 " fill-opacity="1" fill-rule="nonzero"/><path fill="#0652e9" d="M 292.300781 34.875 C 287.621094 31.785156 281.359375 27.6875 276.53125 24.832031 C 264.640625 18.523438 263.109375 17.714844 252.730469 13.46875 C 242.511719 9.714844 242.113281 9.570312 235.738281 7.730469 C 227.296875 5.492188 227.296875 5.492188 222.765625 4.550781 C 215.757812 3.203125 215.757812 3.203125 212.179688 2.675781 C 209.523438 2.320312 205.984375 1.882812 203.324219 1.59375 C 235.039062 5.480469 264.980469 16.679688 292.300781 34.875 " fill-opacity="1" fill-rule="nonzero"/><path fill="#0652e9" d="M 309.832031 322.996094 C 322.3125 310.785156 323.0625 310.054688 329.910156 301.605469 C 340.640625 287.113281 341.28125 286.242188 346.820312 276.519531 C 355.378906 259.804688 355.539062 259.480469 359.003906 250.15625 C 363.777344 234.628906 378.3125 187.378906 307.902344 132.132812 C 260.945312 95.28125 196.171875 65.667969 115.378906 44.113281 C 93.175781 38.1875 87.046875 36.324219 82.980469 33.554688 C 82.910156 33 82.8125 32.253906 82.738281 31.703125 C 82.90625 31.5625 83.125 31.378906 83.292969 31.242188 C 70.472656 40.332031 68.824219 41.5 59.988281 49.414062 C 47.300781 61.914062 47.058594 62.152344 41.128906 69.445312 C 41.03125 70.324219 40.898438 71.492188 40.800781 72.367188 C 44.636719 76.859375 51.578125 79.953125 90.136719 91.765625 C 257.9375 143.164062 398.261719 237.453125 309.832031 322.996094 " fill-opacity="1" fill-rule="nonzero"/><path fill="#0652e9" d="M 184.8125 363.953125 C 206.90625 381.855469 310.332031 349.480469 303.199219 293.734375 C 300.3125 271.203125 274.753906 212.40625 100.136719 153.238281 C 27.769531 128.710938 12.394531 122.71875 13.988281 114.933594 L 10.222656 124.769531 C 4.652344 142.953125 4.433594 143.664062 2.539062 154.4375 C 1.667969 161.101562 0.550781 169.996094 0.0820312 176.695312 C 1.882812 185.9375 16.046875 191.648438 71.375 209.457031 C 362.941406 303.289062 240.023438 370.898438 184.8125 363.953125 " fill-opacity="1" fill-rule="nonzero"/><path fill="#62e1e9" d="M 203.324219 1.59375 C 205.984375 1.886719 209.523438 2.320312 212.179688 2.675781 C 218.878906 3.757812 219.140625 3.800781 222.765625 4.550781 C 230.699219 6.335938 231.171875 6.441406 235.738281 7.730469 C 245.367188 10.691406 246.378906 11.003906 252.730469 13.46875 C 264.074219 18.292969 266.433594 19.296875 276.53125 24.832031 C 281.3125 27.769531 287.671875 31.707031 292.300781 34.875 C 361.261719 86.847656 322.351562 138.144531 302.421875 157.78125 C 290.007812 170.019531 269.226562 190.5 200.585938 223.8125 C 147.765625 249.445312 90.054688 262.335938 36.75 286.722656 C 27.585938 268.671875 21.617188 248.164062 19.585938 225.890625 C 72.074219 205.277344 126.300781 189.257812 177.65625 165.675781 C 219.558594 146.429688 248.988281 126.25 261.460938 114.808594 C 312.226562 68.257812 286.652344 32.0625 249.328125 15.214844 C 226.59375 4.949219 198.546875 1.796875 185.472656 8.03125 C 184.535156 7.027344 183.871094 5.160156 183.730469 3.789062 C 184.914062 2.757812 188.054688 0.0078125 203.324219 1.59375 " fill-opacity="1" fill-rule="nonzero"/><path fill="#0652e9" d="M 370.222656 177.019531 C 369.640625 170.414062 368.835938 161.609375 367.859375 155.046875 C 363.867188 135.96875 363.789062 135.601562 360.289062 125.363281 C 353.457031 107.890625 353.195312 107.207031 348.066406 97.671875 L 347.472656 96.589844 C 300.566406 20.832031 175.324219 1.371094 165.113281 1.78125 L 160.429688 2.351562 C 147.113281 4.386719 138.554688 6.179688 123.03125 11.429688 C 126.117188 12.933594 126.117188 12.933594 137.34375 15.308594 C 159.800781 20.0625 238.109375 38.953125 302.953125 82.390625 C 364.828125 123.839844 368.746094 162.476562 370.222656 177.019531 " fill-opacity="1" fill-rule="nonzero"/></svg>