<svg xmlns="http://www.w3.org/2000/svg" xmlns:xlink="http://www.w3.org/1999/xlink" width="48" zoomAndPan="magnify" viewBox="0 0 36 36.000001" height="48" preserveAspectRatio="xMidYMid meet" version="1.0"><defs><clipPath id="a949eb5c45"><path d="M 0.488281 10 L 28 10 L 28 34 L 0.488281 34 Z M 0.488281 10 " clip-rule="nonzero"/></clipPath></defs><path fill="#62e1e9" d="M 31.75 8.773438 C 32.496094 10.277344 32.527344 10.339844 32.847656 11.257812 C 33.34375 12.894531 33.363281 12.960938 33.527344 13.925781 C 33.605469 14.515625 33.703125 15.304688 33.742188 15.898438 C 33.710938 18.476562 32.964844 21.613281 27.644531 25.34375 C 25.347656 26.957031 20.796875 29.351562 12.132812 31.605469 C 10.9375 31.917969 10.929688 31.921875 10.722656 32.054688 C 10.730469 32.0625 10.742188 32.074219 10.753906 32.082031 C 9.664062 31.59375 9.574219 31.554688 8.910156 31.179688 C 8.066406 30.699219 7.28125 30.125 6.570312 29.460938 C 6.828125 29.238281 7.230469 29.089844 9.109375 28.515625 C 32.492188 21.375 34.300781 13.785156 31.699219 8.675781 L 31.75 8.773438 " fill-opacity="1" fill-rule="nonzero"/><path fill="#62e1e9" d="M 11.539062 1.027344 C 12.394531 0.742188 13.277344 0.449219 14.898438 0.210938 L 15.320312 0.160156 C 15.269531 0.167969 15.199219 0.1875 15.167969 0.222656 C 15.226562 0.28125 15.378906 0.433594 17.148438 0.722656 C 15.695312 0.683594 15.351562 0.675781 13.730469 0.914062 C 11.65625 0.980469 11.65625 0.980469 11.539062 1.027344 " fill-opacity="1" fill-rule="nonzero"/><path fill="#0652e9" d="M 26.742188 3.132812 C 26.324219 2.855469 25.761719 2.488281 25.328125 2.230469 C 24.257812 1.664062 24.121094 1.589844 23.1875 1.210938 C 22.269531 0.871094 22.234375 0.859375 21.664062 0.695312 C 20.90625 0.492188 20.90625 0.492188 20.496094 0.410156 C 19.867188 0.289062 19.867188 0.289062 19.546875 0.238281 C 19.308594 0.207031 18.988281 0.167969 18.75 0.144531 C 21.601562 0.492188 24.289062 1.5 26.742188 3.132812 " fill-opacity="1" fill-rule="nonzero"/><path fill="#0652e9" d="M 28.316406 29.011719 C 29.4375 27.914062 29.503906 27.847656 30.121094 27.089844 C 31.085938 25.789062 31.140625 25.707031 31.640625 24.835938 C 32.40625 23.335938 32.421875 23.304688 32.734375 22.46875 C 33.164062 21.074219 34.46875 16.828125 28.144531 11.867188 C 23.925781 8.558594 18.109375 5.898438 10.851562 3.960938 C 8.859375 3.429688 8.308594 3.261719 7.941406 3.011719 C 7.9375 2.964844 7.925781 2.898438 7.921875 2.847656 C 7.9375 2.835938 7.957031 2.820312 7.972656 2.804688 C 6.820312 3.621094 6.671875 3.726562 5.878906 4.4375 C 4.738281 5.5625 4.714844 5.582031 4.183594 6.238281 C 4.175781 6.316406 4.164062 6.421875 4.15625 6.5 C 4.5 6.902344 5.121094 7.179688 8.585938 8.242188 C 23.65625 12.859375 36.257812 21.328125 28.316406 29.011719 " fill-opacity="1" fill-rule="nonzero"/><g clip-path="url(#a949eb5c45)"><path fill="#0652e9" d="M 17.089844 32.6875 C 19.074219 34.296875 28.363281 31.386719 27.722656 26.382812 C 27.460938 24.359375 25.167969 19.078125 9.484375 13.761719 C 2.984375 11.558594 1.601562 11.023438 1.746094 10.324219 L 1.40625 11.207031 C 0.90625 12.839844 0.886719 12.902344 0.71875 13.871094 C 0.640625 14.46875 0.539062 15.269531 0.496094 15.871094 C 0.660156 16.699219 1.929688 17.214844 6.898438 18.8125 C 33.085938 27.238281 22.046875 33.3125 17.089844 32.6875 " fill-opacity="1" fill-rule="nonzero"/></g><path fill="#62e1e9" d="M 18.75 0.144531 C 18.988281 0.167969 19.308594 0.207031 19.546875 0.238281 C 20.148438 0.335938 20.171875 0.339844 20.496094 0.410156 C 21.210938 0.570312 21.253906 0.578125 21.664062 0.695312 C 22.527344 0.960938 22.617188 0.988281 23.1875 1.210938 C 24.207031 1.644531 24.417969 1.734375 25.328125 2.230469 C 25.757812 2.492188 26.328125 2.847656 26.742188 3.132812 C 32.9375 7.800781 29.441406 12.40625 27.652344 14.171875 C 26.535156 15.269531 24.671875 17.109375 18.503906 20.101562 C 13.761719 22.402344 8.578125 23.5625 3.789062 25.753906 C 2.96875 24.128906 2.429688 22.289062 2.25 20.289062 C 6.964844 18.4375 11.832031 17 16.445312 14.878906 C 20.210938 13.152344 22.851562 11.339844 23.972656 10.3125 C 28.53125 6.128906 26.234375 2.878906 22.882812 1.367188 C 20.839844 0.445312 18.324219 0.160156 17.148438 0.722656 C 17.0625 0.632812 17.003906 0.464844 16.992188 0.339844 C 17.097656 0.246094 17.378906 0 18.75 0.144531 " fill-opacity="1" fill-rule="nonzero"/><path fill="#0652e9" d="M 33.742188 15.898438 C 33.6875 15.304688 33.617188 14.515625 33.527344 13.925781 C 33.171875 12.210938 33.164062 12.179688 32.847656 11.257812 C 32.234375 9.691406 32.210938 9.628906 31.75 8.773438 L 31.699219 8.675781 C 27.484375 1.871094 16.238281 0.125 15.320312 0.160156 L 14.898438 0.210938 C 13.703125 0.394531 12.933594 0.554688 11.539062 1.027344 C 11.816406 1.160156 11.816406 1.160156 12.824219 1.375 C 14.84375 1.800781 21.875 3.5 27.699219 7.398438 C 33.257812 11.121094 33.609375 14.59375 33.742188 15.898438 " fill-opacity="1" fill-rule="nonzero"/></svg>